<svg width="280" height="64" viewBox="0 0 280 64" xmlns="http://www.w3.org/2000/svg" role="img" aria-label="AlohaCamp">
  <rect width="280" height="64" fill="transparent"/>
  <path d="M16 52c-9 0-15-8-13-17 1-4 3-8 5-12L21 2c2-3 7-3 9 0l13 21c2 4 4 8 5 12 2 9-4 17-13 17-5 0-10-2-14-6-4 4-9 6-14 6z" fill="#44A85E"/>
  <path d="M30 39h-8l6-8h-5l7-9 7 9h-5l6 8h-8v8h-4v-8z" fill="#005E20"/>
  <text x="60" y="45" font-family="Arial, Helvetica, sans-serif" font-size="46" font-weight="700" fill="#005E20">AlohaCamp</text>
</svg>
