<svg xmlns="http://www.w3.org/2000/svg" width="48" height="32" viewBox="0 0 48 32" preserveAspectRatio="xMidYMid slice"><rect width="100%" height="100%" fill="#111"/><rect x="0" y="0" width="4" height="4" fill="#202223"/><rect x="4" y="0" width="4" height="4" fill="#36382b"/><rect x="8" y="0" width="4" height="4" fill="#2b2b29"/><rect x="12" y="0" width="4" height="4" fill="#2d3532"/><rect x="16" y="0" width="4" height="4" fill="#375e59"/><rect x="20" y="0" width="4" height="4" fill="#cdedea"/><rect x="24" y="0" width="4" height="4" fill="#ccd9c0"/><rect x="28" y="0" width="4" height="4" fill="#556248"/><rect x="32" y="0" width="4" height="4" fill="#41595b"/><rect x="36" y="0" width="4" height="4" fill="#5d7d7c"/><rect x="40" y="0" width="4" height="4" fill="#3c6c65"/><rect x="44" y="0" width="4" height="4" fill="#274140"/><rect x="0" y="4" width="4" height="4" fill="#2b2c2a"/><rect x="4" y="4" width="4" height="4" fill="#4d4d38"/><rect x="8" y="4" width="4" height="4" fill="#403a2f"/><rect x="12" y="4" width="4" height="4" fill="#40453a"/><rect x="16" y="4" width="4" height="4" fill="#537468"/><rect x="20" y="4" width="4" height="4" fill="#86a9a0"/><rect x="24" y="4" width="4" height="4" fill="#7d988b"/><rect x="28" y="4" width="4" height="4" fill="#687257"/><rect x="32" y="4" width="4" height="4" fill="#52665d"/><rect x="36" y="4" width="4" height="4" fill="#4f716c"/><rect x="40" y="4" width="4" height="4" fill="#386a65"/><rect x="44" y="4" width="4" height="4" fill="#243f3f"/><rect x="0" y="8" width="4" height="4" fill="#3a3b37"/><rect x="4" y="8" width="4" height="4" fill="#6a6851"/><rect x="8" y="8" width="4" height="4" fill="#5c513d"/><rect x="12" y="8" width="4" height="4" fill="#5f614c"/><rect x="16" y="8" width="4" height="4" fill="#758877"/><rect x="20" y="8" width="4" height="4" fill="#6a7f6e"/><rect x="24" y="8" width="4" height="4" fill="#617362"/><rect x="28" y="8" width="4" height="4" fill="#656f60"/><rect x="32" y="8" width="4" height="4" fill="#6c7665"/><rect x="36" y="8" width="4" height="4" fill="#4f6862"/><rect x="40" y="8" width="4" height="4" fill="#305e5c"/><rect x="44" y="8" width="4" height="4" fill="#233d3f"/><rect x="0" y="12" width="4" height="4" fill="#434441"/><rect x="4" y="12" width="4" height="4" fill="#777562"/><rect x="8" y="12" width="4" height="4" fill="#6a5e48"/><rect x="12" y="12" width="4" height="4" fill="#767a64"/><rect x="16" y="12" width="4" height="4" fill="#79715c"/><rect x="20" y="12" width="4" height="4" fill="#52504a"/><rect x="24" y="12" width="4" height="4" fill="#5e5b54"/><rect x="28" y="12" width="4" height="4" fill="#766c5c"/><rect x="32" y="12" width="4" height="4" fill="#88866f"/><rect x="36" y="12" width="4" height="4" fill="#5d675f"/><rect x="40" y="12" width="4" height="4" fill="#315052"/><rect x="44" y="12" width="4" height="4" fill="#22363a"/><rect x="0" y="16" width="4" height="4" fill="#3d3e37"/><rect x="4" y="16" width="4" height="4" fill="#6c6a51"/><rect x="8" y="16" width="4" height="4" fill="#5b5740"/><rect x="12" y="16" width="4" height="4" fill="#676e56"/><rect x="16" y="16" width="4" height="4" fill="#886f56"/><rect x="20" y="16" width="4" height="4" fill="#334146"/><rect x="24" y="16" width="4" height="4" fill="#1e3a3d"/><rect x="28" y="16" width="4" height="4" fill="#7d7861"/><rect x="32" y="16" width="4" height="4" fill="#8f8d6c"/><rect x="36" y="16" width="4" height="4" fill="#6f7563"/><rect x="40" y="16" width="4" height="4" fill="#3b5b54"/><rect x="44" y="16" width="4" height="4" fill="#243f3c"/><rect x="0" y="20" width="4" height="4" fill="#282b24"/><rect x="4" y="20" width="4" height="4" fill="#42462e"/><rect x="8" y="20" width="4" height="4" fill="#2f3826"/><rect x="12" y="20" width="4" height="4" fill="#415231"/><rect x="16" y="20" width="4" height="4" fill="#7e674f"/><rect x="20" y="20" width="4" height="4" fill="#526645"/><rect x="24" y="20" width="4" height="4" fill="#2e4f2f"/><rect x="28" y="20" width="4" height="4" fill="#69664a"/><rect x="32" y="20" width="4" height="4" fill="#adac6e"/><rect x="36" y="20" width="4" height="4" fill="#676244"/><rect x="40" y="20" width="4" height="4" fill="#3e5940"/><rect x="44" y="20" width="4" height="4" fill="#366242"/><rect x="0" y="24" width="4" height="4" fill="#15181e"/><rect x="4" y="24" width="4" height="4" fill="#1a2823"/><rect x="8" y="24" width="4" height="4" fill="#3d5033"/><rect x="12" y="24" width="4" height="4" fill="#728c69"/><rect x="16" y="24" width="4" height="4" fill="#443e3a"/><rect x="20" y="24" width="4" height="4" fill="#4a5536"/><rect x="24" y="24" width="4" height="4" fill="#495a3d"/><rect x="28" y="24" width="4" height="4" fill="#959360"/><rect x="32" y="24" width="4" height="4" fill="#c1c677"/><rect x="36" y="24" width="4" height="4" fill="#949055"/><rect x="40" y="24" width="4" height="4" fill="#323524"/><rect x="44" y="24" width="4" height="4" fill="#63713b"/><rect x="0" y="28" width="4" height="4" fill="#192021"/><rect x="4" y="28" width="4" height="4" fill="#303d2a"/><rect x="8" y="28" width="4" height="4" fill="#485d51"/><rect x="12" y="28" width="4" height="4" fill="#487582"/><rect x="16" y="28" width="4" height="4" fill="#1d3440"/><rect x="20" y="28" width="4" height="4" fill="#5b4943"/><rect x="24" y="28" width="4" height="4" fill="#967d67"/><rect x="28" y="28" width="4" height="4" fill="#9d8e54"/><rect x="32" y="28" width="4" height="4" fill="#798242"/><rect x="36" y="28" width="4" height="4" fill="#616b34"/><rect x="40" y="28" width="4" height="4" fill="#424b28"/><rect x="44" y="28" width="4" height="4" fill="#232c20"/></svg>