<svg xmlns="http://www.w3.org/2000/svg" width="48" height="32" viewBox="0 0 48 32" preserveAspectRatio="xMidYMid slice"><rect width="100%" height="100%" fill="#111"/><rect x="0" y="0" width="4" height="4" fill="#596525"/><rect x="4" y="0" width="4" height="4" fill="#444d25"/><rect x="8" y="0" width="4" height="4" fill="#5f5944"/><rect x="12" y="0" width="4" height="4" fill="#696944"/><rect x="16" y="0" width="4" height="4" fill="#726f54"/><rect x="20" y="0" width="4" height="4" fill="#8e9993"/><rect x="24" y="0" width="4" height="4" fill="#93cdf5"/><rect x="28" y="0" width="4" height="4" fill="#8fabad"/><rect x="32" y="0" width="4" height="4" fill="#6d6b2c"/><rect x="36" y="0" width="4" height="4" fill="#64672e"/><rect x="40" y="0" width="4" height="4" fill="#5d6331"/><rect x="44" y="0" width="4" height="4" fill="#3f4a20"/><rect x="0" y="4" width="4" height="4" fill="#536022"/><rect x="4" y="4" width="4" height="4" fill="#494e25"/><rect x="8" y="4" width="4" height="4" fill="#5e5641"/><rect x="12" y="4" width="4" height="4" fill="#6e6d4f"/><rect x="16" y="4" width="4" height="4" fill="#77735b"/><rect x="20" y="4" width="4" height="4" fill="#97a4a4"/><rect x="24" y="4" width="4" height="4" fill="#bee6ff"/><rect x="28" y="4" width="4" height="4" fill="#909c7c"/><rect x="32" y="4" width="4" height="4" fill="#6e6d30"/><rect x="36" y="4" width="4" height="4" fill="#787b42"/><rect x="40" y="4" width="4" height="4" fill="#525632"/><rect x="44" y="4" width="4" height="4" fill="#37441c"/><rect x="0" y="8" width="4" height="4" fill="#4b571d"/><rect x="4" y="8" width="4" height="4" fill="#545b2c"/><rect x="8" y="8" width="4" height="4" fill="#5d5a40"/><rect x="12" y="8" width="4" height="4" fill="#6f6c4f"/><rect x="16" y="8" width="4" height="4" fill="#707151"/><rect x="20" y="8" width="4" height="4" fill="#84905f"/><rect x="24" y="8" width="4" height="4" fill="#b2cdb3"/><rect x="28" y="8" width="4" height="4" fill="#869056"/><rect x="32" y="8" width="4" height="4" fill="#70713c"/><rect x="36" y="8" width="4" height="4" fill="#7c8449"/><rect x="40" y="8" width="4" height="4" fill="#4f5b2f"/><rect x="44" y="8" width="4" height="4" fill="#2f3e18"/><rect x="0" y="12" width="4" height="4" fill="#596724"/><rect x="4" y="12" width="4" height="4" fill="#5e6c2b"/><rect x="8" y="12" width="4" height="4" fill="#4f592a"/><rect x="12" y="12" width="4" height="4" fill="#565539"/><rect x="16" y="12" width="4" height="4" fill="#5e633a"/><rect x="20" y="12" width="4" height="4" fill="#838c44"/><rect x="24" y="12" width="4" height="4" fill="#aeb37c"/><rect x="28" y="12" width="4" height="4" fill="#737a43"/><rect x="32" y="12" width="4" height="4" fill="#6a6b3f"/><rect x="36" y="12" width="4" height="4" fill="#747b45"/><rect x="40" y="12" width="4" height="4" fill="#525e30"/><rect x="44" y="12" width="4" height="4" fill="#273514"/><rect x="0" y="16" width="4" height="4" fill="#6c7b2b"/><rect x="4" y="16" width="4" height="4" fill="#566123"/><rect x="8" y="16" width="4" height="4" fill="#4a5722"/><rect x="12" y="16" width="4" height="4" fill="#424923"/><rect x="16" y="16" width="4" height="4" fill="#555c2b"/><rect x="20" y="16" width="4" height="4" fill="#a5a47f"/><rect x="24" y="16" width="4" height="4" fill="#e6d6c6"/><rect x="28" y="16" width="4" height="4" fill="#837a55"/><rect x="32" y="16" width="4" height="4" fill="#666e39"/><rect x="36" y="16" width="4" height="4" fill="#6c7a3c"/><rect x="40" y="16" width="4" height="4" fill="#3e4921"/><rect x="44" y="16" width="4" height="4" fill="#222e12"/><rect x="0" y="20" width="4" height="4" fill="#5c6223"/><rect x="4" y="20" width="4" height="4" fill="#4e5918"/><rect x="8" y="20" width="4" height="4" fill="#3d451a"/><rect x="12" y="20" width="4" height="4" fill="#666537"/><rect x="16" y="20" width="4" height="4" fill="#9d926f"/><rect x="20" y="20" width="4" height="4" fill="#c0ada0"/><rect x="24" y="20" width="4" height="4" fill="#b7ae97"/><rect x="28" y="20" width="4" height="4" fill="#7d7751"/><rect x="32" y="20" width="4" height="4" fill="#50522b"/><rect x="36" y="20" width="4" height="4" fill="#56612d"/><rect x="40" y="20" width="4" height="4" fill="#37431e"/><rect x="44" y="20" width="4" height="4" fill="#35471b"/><rect x="0" y="24" width="4" height="4" fill="#45461d"/><rect x="4" y="24" width="4" height="4" fill="#383914"/><rect x="8" y="24" width="4" height="4" fill="#5c5d31"/><rect x="12" y="24" width="4" height="4" fill="#898060"/><rect x="16" y="24" width="4" height="4" fill="#baa99a"/><rect x="20" y="24" width="4" height="4" fill="#b9a79b"/><rect x="24" y="24" width="4" height="4" fill="#9f977b"/><rect x="28" y="24" width="4" height="4" fill="#676b3b"/><rect x="32" y="24" width="4" height="4" fill="#6f6346"/><rect x="36" y="24" width="4" height="4" fill="#444825"/><rect x="40" y="24" width="4" height="4" fill="#2b3615"/><rect x="44" y="24" width="4" height="4" fill="#324218"/><rect x="0" y="28" width="4" height="4" fill="#3d401f"/><rect x="4" y="28" width="4" height="4" fill="#585c32"/><rect x="8" y="28" width="4" height="4" fill="#817959"/><rect x="12" y="28" width="4" height="4" fill="#a99787"/><rect x="16" y="28" width="4" height="4" fill="#b0a090"/><rect x="20" y="28" width="4" height="4" fill="#ac998c"/><rect x="24" y="28" width="4" height="4" fill="#938a6e"/><rect x="28" y="28" width="4" height="4" fill="#5a5b33"/><rect x="32" y="28" width="4" height="4" fill="#655a40"/><rect x="36" y="28" width="4" height="4" fill="#3f3f24"/><rect x="40" y="28" width="4" height="4" fill="#2f3a16"/><rect x="44" y="28" width="4" height="4" fill="#48582f"/></svg>