<svg xmlns="http://www.w3.org/2000/svg" width="48" height="32" viewBox="0 0 48 32" preserveAspectRatio="xMidYMid slice"><rect width="100%" height="100%" fill="#111"/><rect x="0" y="0" width="4" height="4" fill="#646402"/><rect x="4" y="0" width="4" height="4" fill="#5b5905"/><rect x="8" y="0" width="4" height="4" fill="#9b911c"/><rect x="12" y="0" width="4" height="4" fill="#9b9911"/><rect x="16" y="0" width="4" height="4" fill="#9c9822"/><rect x="20" y="0" width="4" height="4" fill="#808531"/><rect x="24" y="0" width="4" height="4" fill="#5f621c"/><rect x="28" y="0" width="4" height="4" fill="#67681a"/><rect x="32" y="0" width="4" height="4" fill="#6e721b"/><rect x="36" y="0" width="4" height="4" fill="#615f1a"/><rect x="40" y="0" width="4" height="4" fill="#98932d"/><rect x="44" y="0" width="4" height="4" fill="#988e22"/><rect x="0" y="4" width="4" height="4" fill="#808b04"/><rect x="4" y="4" width="4" height="4" fill="#879200"/><rect x="8" y="4" width="4" height="4" fill="#a3a50d"/><rect x="12" y="4" width="4" height="4" fill="#a1a114"/><rect x="16" y="4" width="4" height="4" fill="#72732e"/><rect x="20" y="4" width="4" height="4" fill="#768037"/><rect x="24" y="4" width="4" height="4" fill="#949918"/><rect x="28" y="4" width="4" height="4" fill="#9c9d18"/><rect x="32" y="4" width="4" height="4" fill="#898d21"/><rect x="36" y="4" width="4" height="4" fill="#727415"/><rect x="40" y="4" width="4" height="4" fill="#94961d"/><rect x="44" y="4" width="4" height="4" fill="#a9a124"/><rect x="0" y="8" width="4" height="4" fill="#a69230"/><rect x="4" y="8" width="4" height="4" fill="#81781c"/><rect x="8" y="8" width="4" height="4" fill="#433b18"/><rect x="12" y="8" width="4" height="4" fill="#493f1b"/><rect x="16" y="8" width="4" height="4" fill="#271308"/><rect x="20" y="8" width="4" height="4" fill="#61523f"/><rect x="24" y="8" width="4" height="4" fill="#aaa03e"/><rect x="28" y="8" width="4" height="4" fill="#bfb436"/><rect x="32" y="8" width="4" height="4" fill="#c0ad53"/><rect x="36" y="8" width="4" height="4" fill="#a2923b"/><rect x="40" y="8" width="4" height="4" fill="#8b8814"/><rect x="44" y="8" width="4" height="4" fill="#a09b16"/><rect x="0" y="12" width="4" height="4" fill="#907138"/><rect x="4" y="12" width="4" height="4" fill="#826a2d"/><rect x="8" y="12" width="4" height="4" fill="#432a11"/><rect x="12" y="12" width="4" height="4" fill="#594311"/><rect x="16" y="12" width="4" height="4" fill="#6f4912"/><rect x="20" y="12" width="4" height="4" fill="#90732a"/><rect x="24" y="12" width="4" height="4" fill="#8b7833"/><rect x="28" y="12" width="4" height="4" fill="#a38946"/><rect x="32" y="12" width="4" height="4" fill="#bc974c"/><rect x="36" y="12" width="4" height="4" fill="#b58e45"/><rect x="40" y="12" width="4" height="4" fill="#937b2c"/><rect x="44" y="12" width="4" height="4" fill="#78731a"/><rect x="0" y="16" width="4" height="4" fill="#745f38"/><rect x="4" y="16" width="4" height="4" fill="#755c2f"/><rect x="8" y="16" width="4" height="4" fill="#5a431f"/><rect x="12" y="16" width="4" height="4" fill="#856b36"/><rect x="16" y="16" width="4" height="4" fill="#855f2a"/><rect x="20" y="16" width="4" height="4" fill="#997a46"/><rect x="24" y="16" width="4" height="4" fill="#867429"/><rect x="28" y="16" width="4" height="4" fill="#927b38"/><rect x="32" y="16" width="4" height="4" fill="#a8943c"/><rect x="36" y="16" width="4" height="4" fill="#b09a3a"/><rect x="40" y="16" width="4" height="4" fill="#b49241"/><rect x="44" y="16" width="4" height="4" fill="#a3894a"/><rect x="0" y="20" width="4" height="4" fill="#736039"/><rect x="4" y="20" width="4" height="4" fill="#93723c"/><rect x="8" y="20" width="4" height="4" fill="#7a5c34"/><rect x="12" y="20" width="4" height="4" fill="#9f7f44"/><rect x="16" y="20" width="4" height="4" fill="#7b691b"/><rect x="20" y="20" width="4" height="4" fill="#675219"/><rect x="24" y="20" width="4" height="4" fill="#9b882a"/><rect x="28" y="20" width="4" height="4" fill="#7a6b1d"/><rect x="32" y="20" width="4" height="4" fill="#929128"/><rect x="36" y="20" width="4" height="4" fill="#a6a51c"/><rect x="40" y="20" width="4" height="4" fill="#a68e35"/><rect x="44" y="20" width="4" height="4" fill="#b19c49"/><rect x="0" y="24" width="4" height="4" fill="#714d1f"/><rect x="4" y="24" width="4" height="4" fill="#845f2b"/><rect x="8" y="24" width="4" height="4" fill="#886f3d"/><rect x="12" y="24" width="4" height="4" fill="#917942"/><rect x="16" y="24" width="4" height="4" fill="#705a27"/><rect x="20" y="24" width="4" height="4" fill="#706427"/><rect x="24" y="24" width="4" height="4" fill="#71652c"/><rect x="28" y="24" width="4" height="4" fill="#6c6e50"/><rect x="32" y="24" width="4" height="4" fill="#5b5631"/><rect x="36" y="24" width="4" height="4" fill="#372d0e"/><rect x="40" y="24" width="4" height="4" fill="#574c2d"/><rect x="44" y="24" width="4" height="4" fill="#635829"/><rect x="0" y="28" width="4" height="4" fill="#4a3315"/><rect x="4" y="28" width="4" height="4" fill="#563c19"/><rect x="8" y="28" width="4" height="4" fill="#624d22"/><rect x="12" y="28" width="4" height="4" fill="#746439"/><rect x="16" y="28" width="4" height="4" fill="#6d582f"/><rect x="20" y="28" width="4" height="4" fill="#72603a"/><rect x="24" y="28" width="4" height="4" fill="#6e5f43"/><rect x="28" y="28" width="4" height="4" fill="#8f8a74"/><rect x="32" y="28" width="4" height="4" fill="#62553d"/><rect x="36" y="28" width="4" height="4" fill="#615740"/><rect x="40" y="28" width="4" height="4" fill="#605a45"/><rect x="44" y="28" width="4" height="4" fill="#4e4229"/></svg>