<svg xmlns="http://www.w3.org/2000/svg" width="48" height="32" viewBox="0 0 48 32" preserveAspectRatio="xMidYMid slice"><rect width="100%" height="100%" fill="#111"/><rect x="0" y="0" width="4" height="4" fill="#39526a"/><rect x="4" y="0" width="4" height="4" fill="#3d515b"/><rect x="8" y="0" width="4" height="4" fill="#3e556c"/><rect x="12" y="0" width="4" height="4" fill="#374f69"/><rect x="16" y="0" width="4" height="4" fill="#232d33"/><rect x="20" y="0" width="4" height="4" fill="#323b3c"/><rect x="24" y="0" width="4" height="4" fill="#3d536d"/><rect x="28" y="0" width="4" height="4" fill="#394d64"/><rect x="32" y="0" width="4" height="4" fill="#42545e"/><rect x="36" y="0" width="4" height="4" fill="#425461"/><rect x="40" y="0" width="4" height="4" fill="#425567"/><rect x="44" y="0" width="4" height="4" fill="#41556b"/><rect x="0" y="4" width="4" height="4" fill="#384c5a"/><rect x="4" y="4" width="4" height="4" fill="#424b41"/><rect x="8" y="4" width="4" height="4" fill="#526a7b"/><rect x="12" y="4" width="4" height="4" fill="#2c3b46"/><rect x="16" y="4" width="4" height="4" fill="#21211a"/><rect x="20" y="4" width="4" height="4" fill="#353a34"/><rect x="24" y="4" width="4" height="4" fill="#4a5f70"/><rect x="28" y="4" width="4" height="4" fill="#475e73"/><rect x="32" y="4" width="4" height="4" fill="#384b57"/><rect x="36" y="4" width="4" height="4" fill="#3a4c57"/><rect x="40" y="4" width="4" height="4" fill="#4c5d60"/><rect x="44" y="4" width="4" height="4" fill="#496171"/><rect x="0" y="8" width="4" height="4" fill="#7a877b"/><rect x="4" y="8" width="4" height="4" fill="#818c81"/><rect x="8" y="8" width="4" height="4" fill="#7b887f"/><rect x="12" y="8" width="4" height="4" fill="#5f675c"/><rect x="16" y="8" width="4" height="4" fill="#646d64"/><rect x="20" y="8" width="4" height="4" fill="#677265"/><rect x="24" y="8" width="4" height="4" fill="#7c8b7d"/><rect x="28" y="8" width="4" height="4" fill="#839794"/><rect x="32" y="8" width="4" height="4" fill="#758482"/><rect x="36" y="8" width="4" height="4" fill="#7a8a87"/><rect x="40" y="8" width="4" height="4" fill="#7b8b89"/><rect x="44" y="8" width="4" height="4" fill="#829595"/><rect x="0" y="12" width="4" height="4" fill="#7d7f68"/><rect x="4" y="12" width="4" height="4" fill="#7a7d63"/><rect x="8" y="12" width="4" height="4" fill="#737660"/><rect x="12" y="12" width="4" height="4" fill="#8b8971"/><rect x="16" y="12" width="4" height="4" fill="#9e9779"/><rect x="20" y="12" width="4" height="4" fill="#a8a081"/><rect x="24" y="12" width="4" height="4" fill="#a0a086"/><rect x="28" y="12" width="4" height="4" fill="#879181"/><rect x="32" y="12" width="4" height="4" fill="#979c86"/><rect x="36" y="12" width="4" height="4" fill="#9a9e87"/><rect x="40" y="12" width="4" height="4" fill="#8b9077"/><rect x="44" y="12" width="4" height="4" fill="#798168"/><rect x="0" y="16" width="4" height="4" fill="#333629"/><rect x="4" y="16" width="4" height="4" fill="#524f33"/><rect x="8" y="16" width="4" height="4" fill="#6e6541"/><rect x="12" y="16" width="4" height="4" fill="#4a4634"/><rect x="16" y="16" width="4" height="4" fill="#635839"/><rect x="20" y="16" width="4" height="4" fill="#766643"/><rect x="24" y="16" width="4" height="4" fill="#907850"/><rect x="28" y="16" width="4" height="4" fill="#786a4b"/><rect x="32" y="16" width="4" height="4" fill="#736f4f"/><rect x="36" y="16" width="4" height="4" fill="#5a5b3f"/><rect x="40" y="16" width="4" height="4" fill="#373c1f"/><rect x="44" y="16" width="4" height="4" fill="#262d12"/><rect x="0" y="20" width="4" height="4" fill="#42481e"/><rect x="4" y="20" width="4" height="4" fill="#3f4419"/><rect x="8" y="20" width="4" height="4" fill="#49451f"/><rect x="12" y="20" width="4" height="4" fill="#2f3116"/><rect x="16" y="20" width="4" height="4" fill="#202411"/><rect x="20" y="20" width="4" height="4" fill="#3b391c"/><rect x="24" y="20" width="4" height="4" fill="#5e522a"/><rect x="28" y="20" width="4" height="4" fill="#5a4c2a"/><rect x="32" y="20" width="4" height="4" fill="#4e4923"/><rect x="36" y="20" width="4" height="4" fill="#41411d"/><rect x="40" y="20" width="4" height="4" fill="#3d3e1f"/><rect x="44" y="20" width="4" height="4" fill="#464723"/><rect x="0" y="24" width="4" height="4" fill="#5e5818"/><rect x="4" y="24" width="4" height="4" fill="#282a0c"/><rect x="8" y="24" width="4" height="4" fill="#111609"/><rect x="12" y="24" width="4" height="4" fill="#292b0c"/><rect x="16" y="24" width="4" height="4" fill="#191a0a"/><rect x="20" y="24" width="4" height="4" fill="#1a200b"/><rect x="24" y="24" width="4" height="4" fill="#2d3317"/><rect x="28" y="24" width="4" height="4" fill="#48491d"/><rect x="32" y="24" width="4" height="4" fill="#635c27"/><rect x="36" y="24" width="4" height="4" fill="#585426"/><rect x="40" y="24" width="4" height="4" fill="#44401e"/><rect x="44" y="24" width="4" height="4" fill="#464523"/><rect x="0" y="28" width="4" height="4" fill="#45420b"/><rect x="4" y="28" width="4" height="4" fill="#292a0c"/><rect x="8" y="28" width="4" height="4" fill="#1a1d11"/><rect x="12" y="28" width="4" height="4" fill="#252905"/><rect x="16" y="28" width="4" height="4" fill="#1e1f08"/><rect x="20" y="28" width="4" height="4" fill="#080b01"/><rect x="24" y="28" width="4" height="4" fill="#131703"/><rect x="28" y="28" width="4" height="4" fill="#2a2b0a"/><rect x="32" y="28" width="4" height="4" fill="#3e4014"/><rect x="36" y="28" width="4" height="4" fill="#3d4017"/><rect x="40" y="28" width="4" height="4" fill="#313313"/><rect x="44" y="28" width="4" height="4" fill="#2f3311"/></svg>